<svg width="13" height="13" viewBox="0 0 13 13" fill="none" xmlns="http://www.w3.org/2000/svg">
<g clip-path="url(#clip0)">
<path d="M6.62794 13.0003C6.5849 13.0003 6.54185 13.0003 6.49851 13.0001C5.47952 13.0026 4.53798 12.9767 3.62233 12.921C2.78285 12.8699 2.01657 12.5798 1.4062 12.0821C0.817261 11.6019 0.415077 10.9525 0.210861 10.1523C0.0331269 9.45566 0.0237045 8.7718 0.014679 8.11035C0.00813292 7.63577 0.00138855 7.07341 0 6.50152C0.00138855 5.92726 0.00813292 5.36489 0.014679 4.89031C0.0237045 4.22896 0.0331269 3.5451 0.210861 2.84835C0.415077 2.04814 0.817261 1.3988 1.4062 0.918558C2.01657 0.420862 2.78285 0.130754 3.62243 0.0796755C4.53808 0.0240343 5.47981 -0.00195145 6.50099 0.000528105C7.52029 -0.0016539 8.46152 0.0240343 9.37717 0.0796755C10.2167 0.130754 10.9829 0.420862 11.5933 0.918558C12.1823 1.3988 12.5844 2.04814 12.7886 2.84835C12.9664 3.545 12.9758 4.22896 12.9848 4.89031C12.9914 5.36489 12.9982 5.92726 12.9995 6.49914V6.50152C12.9982 7.07341 12.9914 7.63577 12.9848 8.11035C12.9758 8.7717 12.9665 9.45556 12.7886 10.1523C12.5844 10.9525 12.1823 11.6019 11.5933 12.0821C10.9829 12.5798 10.2167 12.8699 9.37717 12.921C8.50031 12.9743 7.59953 13.0003 6.62794 13.0003ZM6.49851 11.9845C7.50095 11.9869 8.42136 11.9616 9.31548 11.9072C9.95025 11.8687 10.5006 11.6627 10.9515 11.295C11.3683 10.9551 11.6553 10.4862 11.8046 9.90119C11.9525 9.32127 11.9611 8.6986 11.9693 8.09647C11.9757 7.62506 11.9825 7.06666 11.9839 6.50033C11.9825 5.9339 11.9757 5.37561 11.9693 4.90419C11.9611 4.30206 11.9525 3.67939 11.8046 3.09938C11.6553 2.5144 11.3683 2.04547 10.9515 1.70557C10.5006 1.338 9.95025 1.132 9.31548 1.09342C8.42136 1.03897 7.50095 1.01387 6.50089 1.01605C5.49866 1.01367 4.57815 1.03897 3.68402 1.09342C3.04926 1.132 2.49889 1.338 2.04801 1.70557C1.63125 2.04547 1.34422 2.5144 1.19495 3.09938C1.04697 3.67939 1.03844 4.30196 1.0302 4.90419C1.02376 5.376 1.01701 5.93469 1.01562 6.50152C1.01701 7.06587 1.02376 7.62466 1.0302 8.09647C1.03844 8.6986 1.04697 9.32127 1.19495 9.90119C1.34422 10.4862 1.63125 10.9551 2.04801 11.295C2.49889 11.6626 3.04926 11.8686 3.68402 11.9071C4.57815 11.9616 5.49886 11.987 6.49851 11.9845ZM6.47431 9.67416C4.72434 9.67416 3.30048 8.2504 3.30048 6.50033C3.30048 4.75026 4.72434 3.3265 6.47431 3.3265C8.22438 3.3265 9.64814 4.75026 9.64814 6.50033C9.64814 8.2504 8.22438 9.67416 6.47431 9.67416ZM6.47431 4.34213C5.28432 4.34213 4.31611 5.31034 4.31611 6.50033C4.31611 7.69032 5.28432 8.65853 6.47431 8.65853C7.6644 8.65853 8.63251 7.69032 8.63251 6.50033C8.63251 5.31034 7.6644 4.34213 6.47431 4.34213ZM10.0036 2.31088C9.58298 2.31088 9.24189 2.65187 9.24189 3.0726C9.24189 3.49333 9.58298 3.83431 10.0036 3.83431C10.4243 3.83431 10.7653 3.49333 10.7653 3.0726C10.7653 2.65187 10.4243 2.31088 10.0036 2.31088Z" fill="white"/>
</g>
<defs>
<clipPath id="clip0">
<rect width="13" height="13" fill="white"/>
</clipPath>
</defs>
</svg>
