<svg width="13" height="13" viewBox="0 0 13 13" fill="none" xmlns="http://www.w3.org/2000/svg">
<path d="M12.0624 0H0.937569C0.419739 0 0 0.419739 0 0.937569V12.0624C0 12.5803 0.419739 13 0.937569 13H6.94434V7.97266H5.25586V6.00488H6.94434V4.55672C6.94434 2.87737 7.96958 1.96331 9.46763 1.96331C10.1851 1.96331 10.8017 2.01677 10.9814 2.04067V3.7959H9.94846C9.13338 3.7959 8.97559 4.1832 8.97559 4.75162V6.00488H10.9243L10.6704 7.97266H8.97559V13H12.0624C12.5803 13 13 12.5803 13 12.0624V0.937569C13 0.419739 12.5803 0 12.0624 0V0Z" fill="white"/>
</svg>
