<svg width="13" height="13" viewBox="0 0 13 13" fill="none" xmlns="http://www.w3.org/2000/svg">
<path d="M11.0957 0H1.9043C0.854355 0 0 0.854355 0 1.9043V11.0957C0 12.1456 0.854355 13 1.9043 13H11.0957C12.1456 13 13 12.1456 13 11.0957V1.9043C13 0.854355 12.1456 0 11.0957 0ZM4.5957 10.3086H3.07227V4.97656H4.5957V10.3086ZM4.5957 4.21484H3.07227V2.69141H4.5957V4.21484ZM9.92773 10.3086H8.4043V7.26172C8.4043 6.84178 8.06252 6.5 7.64258 6.5C7.22264 6.5 6.88086 6.84178 6.88086 7.26172V10.3086H5.35742V4.97656H6.88086V5.26369C7.27997 5.13962 7.53923 4.97656 8.02344 4.97656C9.05662 4.97765 9.92773 5.90451 9.92773 6.99988V10.3086Z" fill="white"/>
</svg>
