<svg width="30" height="30" viewBox="0 0 30 30" fill="none" xmlns="http://www.w3.org/2000/svg">
<path d="M4.80605 26.28L4.32605 29.838L5.62805 26.616L4.80605 26.28Z" fill="#2F3C80"/>
<path d="M4.32605 29.838L6.48605 26.97L5.62805 26.616L4.32605 29.838Z" fill="#2F3C80"/>
<path d="M21.708 18.96H8.29199V19.746H21.708V18.96Z" fill="#E29314"/>
<path d="M15.708 17.418H14.292V21.288H15.708V17.418Z" fill="#E29314"/>
<path d="M25.134 26.304L24.408 26.604L25.608 29.82L25.134 26.304Z" fill="#2F3C80"/>
<path d="M24.408 26.604L23.454 26.994L25.614 29.862L25.608 29.82L24.408 26.604Z" fill="#2F3C80"/>
<path d="M11.819 6.99164L4.19922 26.4252L5.50075 26.9355L13.1206 7.50197L11.819 6.99164Z" fill="#F4A81E"/>
<path d="M13.1153 7.50147L5.49548 26.935L7.05396 27.5461L14.6738 8.11254L13.1153 7.50147Z" fill="#E29314"/>
<path d="M18.18 6.98999L16.818 7.52399L24.534 26.922L25.8 26.424L18.18 6.98999Z" fill="#F4A81E"/>
<path d="M16.818 7.52399L15.324 8.11199L22.944 27.546L24.534 26.922L16.818 7.52399Z" fill="#E29314"/>
<path d="M13.98 1.50596V7.06796C13.9792 7.20241 14.005 7.3357 14.0559 7.46014C14.1068 7.58459 14.1818 7.69774 14.2766 7.79309C14.3714 7.88844 14.4841 7.96411 14.6083 8.01575C14.7324 8.06738 14.8655 8.09396 15 8.09396V0.485962C14.7295 0.485962 14.47 0.593426 14.2787 0.784713C14.0875 0.976 13.98 1.23544 13.98 1.50596Z" fill="#495DC9"/>
<path d="M15 0.485962V8.09396C15.1345 8.09396 15.2676 8.06738 15.3917 8.01575C15.5159 7.96411 15.6286 7.88844 15.7234 7.79309C15.8182 7.69774 15.8932 7.58459 15.9441 7.46014C15.995 7.3357 16.0208 7.20241 16.02 7.06796V1.50596C16.02 1.23544 15.9125 0.976 15.7212 0.784713C15.53 0.593426 15.2705 0.485962 15 0.485962Z" fill="#495DC9"/>
<path d="M13.392 5.00403C11.688 5.00403 10.872 6.07803 11.592 7.40403L13.734 11.37C13.8383 11.6303 14.011 11.8575 14.2338 12.0275C14.4567 12.1976 14.7215 12.3042 15 12.336V5.00403H13.392Z" fill="#2F3C80"/>
<path d="M16.608 5.00403H15V12.336C15.2837 12.3057 15.5536 12.1978 15.7801 12.0243C16.0066 11.8507 16.1809 11.6181 16.284 11.352L18.426 7.38603C19.128 6.07803 18.312 5.00403 16.608 5.00403Z" fill="#2F3C80"/>
<path d="M15.078 0.498047H14.832V4.99205H15.078V0.498047Z" fill="#495DC9"/>
<path d="M15.204 5.034H14.748V12.252H15.204V5.034Z" fill="#2F3C80"/>
</svg>
