<svg width="20" height="20" viewBox="0 0 20 20" fill="none" xmlns="http://www.w3.org/2000/svg">
<g clip-path="url(#clip0)">
<path d="M8.49715 0.000127564C8.38499 0.00318855 8.28159 0.0613473 8.22071 0.155558L7.23508 1.63408H3.8782C3.69039 1.63408 3.53809 1.78638 3.53809 1.97419V5.37529C3.53809 5.56309 3.69039 5.71539 3.8782 5.71539H7.27929C7.4671 5.71539 7.6194 5.56309 7.6194 5.37529V2.69189L6.93918 3.71222V5.03518H4.2183V2.3143H6.78151L5.82491 3.74915L5.40685 2.91296C5.32489 2.74393 5.12143 2.67332 4.9524 2.75529C4.78336 2.83725 4.71276 3.04071 4.79472 3.20974C4.79595 3.21219 4.7971 3.21464 4.7984 3.21709L5.47861 4.57752C5.56262 4.74554 5.76689 4.8137 5.93497 4.72969C5.98789 4.70323 6.03299 4.66344 6.06585 4.61419L8.78672 0.532875C8.89318 0.378057 8.854 0.166305 8.69918 0.0598508C8.6398 0.0191057 8.56912 -0.00184507 8.49715 0.000127564ZM10.0002 2.99466C9.81236 2.99466 9.66006 3.14696 9.66006 3.33476V4.01498C9.66006 4.20279 9.81236 4.35509 10.0002 4.35509H16.1221C16.3099 4.35509 16.4622 4.20279 16.4622 4.01498V3.33476C16.4622 3.14696 16.3099 2.99466 16.1221 2.99466H10.0002ZM3.8782 6.39813C3.69039 6.39813 3.53809 6.55043 3.53809 6.73824V10.1393C3.53809 10.3271 3.69039 10.4794 3.8782 10.4794H7.27929C7.4671 10.4794 7.6194 10.3271 7.6194 10.1393V6.73824C7.6194 6.55043 7.4671 6.39813 7.27929 6.39813H3.8782ZM4.2183 7.07835H6.93918V9.79922H4.2183V7.07835ZM10.0002 7.75605C9.81236 7.75605 9.66006 7.90835 9.66006 8.09616V8.77638C9.66006 8.96419 9.81236 9.11649 10.0002 9.11649H16.1221C16.3099 9.11649 16.4622 8.96419 16.4622 8.77638V8.09616C16.4622 7.90835 16.3099 7.75605 16.1221 7.75605H10.0002ZM3.8782 11.1571C3.69039 11.1571 3.53809 11.3094 3.53809 11.4973V14.8983C3.53809 15.0862 3.69039 15.2385 3.8782 15.2385H7.27929C7.4671 15.2385 7.6194 15.0862 7.6194 14.8983V11.4973C7.6194 11.3094 7.4671 11.1571 7.27929 11.1571H3.8782ZM4.2183 11.8374H6.93918V14.5582H4.2183V11.8374ZM10.0002 12.52C9.81236 12.52 9.66006 12.6723 9.66006 12.8601V13.5403C9.66006 13.7281 9.81236 13.8804 10.0002 13.8804H16.1221C16.3099 13.8804 16.4622 13.7281 16.4622 13.5403V12.8601C16.4622 12.6723 16.3099 12.52 16.1221 12.52H10.0002ZM3.8782 15.9187C3.69039 15.9187 3.53809 16.071 3.53809 16.2588V19.6599C3.53809 19.8477 3.69039 20 3.8782 20H7.27929C7.4671 20 7.6194 19.8477 7.6194 19.6599V16.2588C7.6194 16.071 7.4671 15.9187 7.27929 15.9187H3.8782ZM4.2183 16.5989H6.93918V19.3198H4.2183V16.5989ZM10.0002 17.2791C9.81236 17.2791 9.66006 17.4314 9.66006 17.6192V18.2994C9.66006 18.4873 9.81236 18.6396 10.0002 18.6396H16.1221C16.3099 18.6396 16.4622 18.4873 16.4622 18.2994V17.6192C16.4622 17.4314 16.3099 17.2791 16.1221 17.2791H10.0002Z" fill="#2F3C80"/>
</g>
<defs>
<clipPath id="clip0">
<rect width="20" height="20" fill="white"/>
</clipPath>
</defs>
</svg>
