<svg width="18" height="18" viewBox="0 0 18 18" fill="none" xmlns="http://www.w3.org/2000/svg">
<g clip-path="url(#clip0)">
<path d="M17.6953 4.59588C17.5058 4.4787 17.2691 4.468 17.0698 4.56759L12.8571 6.67422V5.14293C12.8571 4.07781 11.9937 3.21436 10.9286 3.21436H1.92857C0.86345 3.21436 0 4.07781 0 5.14293V12.8572C0 13.9223 0.86345 14.7858 1.92857 14.7858H10.9286C11.9937 14.7858 12.8571 13.9223 12.8571 12.8572V11.3259L17.0698 13.4358C17.3874 13.5945 17.7735 13.4657 17.9322 13.1481C17.9773 13.0578 18.0006 12.9581 18 12.8572V5.14293C18.0001 4.92009 17.8848 4.7131 17.6953 4.59588ZM6.42858 11.5715C5.00841 11.5715 3.85714 10.4202 3.85714 9.00007C3.85714 7.57989 5.00841 6.42863 6.42858 6.42863C7.84875 6.42863 9.00002 7.57989 9.00002 9.00007C9.00002 10.4202 7.84872 11.5715 6.42858 11.5715Z" fill="#2F3C80"/>
</g>
<defs>
<clipPath id="clip0">
<rect width="18" height="18" fill="white"/>
</clipPath>
</defs>
</svg>
