<svg width="30" height="30" viewBox="0 0 30 30" fill="none" xmlns="http://www.w3.org/2000/svg">
<path d="M25.2001 17.082H19.8901C19.8901 18.4537 19.3451 19.7693 18.3752 20.7392C17.4053 21.7091 16.0898 22.254 14.7181 22.254C13.3464 22.254 12.0308 21.7091 11.0609 20.7392C10.091 19.7693 9.54605 18.4537 9.54605 17.082H4.23605C4.23605 17.304 4.23605 17.52 4.23605 17.742L2.15405 18.282L3.09605 21.882L5.13005 21.348C5.57518 22.3177 6.16825 23.2124 6.88805 24L5.62205 25.662L8.56805 27.936L9.81005 26.322C10.7655 26.8279 11.7938 27.1821 12.8581 27.372V29.4H16.5781V27.372C17.5915 27.1966 18.5726 26.8689 19.4881 26.4L20.6881 28.032L23.6881 25.8L22.4461 24.15C22.9723 23.5726 23.4331 22.9388 23.8201 22.26L25.8001 22.98L27.0841 19.494L25.0801 18.756C25.1656 18.2022 25.2058 17.6424 25.2001 17.082Z" fill="#2F3C80"/>
<path d="M13.7999 25.326C12.154 25.3148 10.5562 24.7702 9.24606 23.7738C7.93597 22.7774 6.98432 21.3831 6.53394 19.8L6.93594 19.686C7.36332 21.1804 8.26283 22.4964 9.50002 23.4372C10.7372 24.3781 12.2457 24.8934 13.7999 24.906V25.326Z" fill="white"/>
<path d="M19.2181 3.86999L18.9661 2.23199L19.2181 3.86999Z" fill="#F3A81D"/>
<path d="M26.322 15.42C26.3379 13.5126 25.932 11.6252 25.1333 9.89296C24.3346 8.16073 23.1629 6.62647 21.702 5.39998C20.937 4.78493 20.0961 4.27072 19.2 3.86998L19.8 7.94998L19.2 3.86998L18.948 2.23198C17.9086 1.74422 16.7955 1.43199 15.654 1.30798L16.056 6.17998H13.404L13.8 1.28998C12.6497 1.37852 11.5292 1.69895 10.506 2.23198L9.48601 7.94998L10.506 2.23198L10.2 3.87598C8.72871 4.58498 7.41334 5.5799 6.33065 6.80269C5.24796 8.02548 4.41964 9.45165 3.89401 10.998C3.40404 12.4207 3.15462 13.9152 3.15601 15.42H26.322Z" fill="#F3A81D"/>
<path d="M26.4541 15.42H3.05411C3.05411 15.42 1.99811 15.456 2.01011 17.082H27.4801C27.4921 15.456 26.4541 15.42 26.4541 15.42Z" fill="#E29314"/>
<path d="M15.6721 1.36798L15.6061 0.599976H14.7421H13.8721L13.4041 6.23398H16.0741L15.6721 1.36798Z" fill="#E29314"/>
<path d="M14.7181 22.098C13.3719 22.0986 12.0787 21.5743 11.1129 20.6366C10.1472 19.6988 9.58509 18.4215 9.54605 17.076H7.80005C8.29205 20.802 11.274 23.676 14.886 23.676C18.498 23.676 21.486 20.814 21.972 17.076H19.8901C19.851 18.4215 19.2889 19.6988 18.3232 20.6366C17.3574 21.5743 16.0642 22.0986 14.7181 22.098Z" fill="#495DC9"/>
</svg>
