<svg width="30" height="30" viewBox="0 0 30 30" fill="none" xmlns="http://www.w3.org/2000/svg">
<path d="M4.146 13.26H1.17C0.82869 13.26 0.552002 13.5367 0.552002 13.878V15.78C0.552002 16.1213 0.82869 16.398 1.17 16.398H4.146C4.48731 16.398 4.764 16.1213 4.764 15.78V13.878C4.764 13.5367 4.48731 13.26 4.146 13.26Z" fill="#E29314"/>
<path d="M10.752 10.638H2.89801C2.48786 10.6628 2.09937 10.8305 1.80001 11.112H3.00001V12.18H1.31401C1.31401 12.258 1.26001 12.282 1.26001 12.318V17.358C1.27257 17.7824 1.45248 18.1846 1.76047 18.4769C2.06846 18.7691 2.47954 18.9277 2.90401 18.918H10.752C10.9605 18.9212 11.1676 18.8831 11.3614 18.8061C11.5552 18.729 11.7318 18.6145 11.8812 18.469C12.0306 18.3235 12.1498 18.1499 12.232 17.9582C12.3142 17.7665 12.3577 17.5605 12.36 17.352V12.3C12.3573 11.8693 12.1886 11.4562 11.8891 11.1467C11.5896 10.8372 11.1824 10.655 10.752 10.638Z" fill="#F4A81E"/>
<path d="M3.00004 11.106H1.80004C1.51452 11.3944 1.3348 11.7707 1.29004 12.174H3.00004V11.106Z" fill="white"/>
<path d="M8.29206 27.738H8.33406V19.878C8.32406 19.6605 8.27124 19.447 8.17863 19.2499C8.08603 19.0528 7.95545 18.8759 7.79439 18.7293C7.63332 18.5828 7.44492 18.4694 7.23998 18.3957C7.03504 18.3221 6.81759 18.2895 6.60006 18.3H5.88606C5.43942 18.272 4.99976 18.4214 4.66269 18.7158C4.32562 19.0101 4.11839 19.4257 4.08606 19.872V27.732C4.10263 27.9506 4.16259 28.1637 4.26244 28.3589C4.36229 28.554 4.50003 28.7273 4.66761 28.8686C4.83519 29.01 5.02925 29.1165 5.23845 29.182C5.44766 29.2475 5.66781 29.2706 5.88606 29.25H8.17206C8.26844 29.2612 8.3661 29.2516 8.45844 29.2218C8.55078 29.192 8.63566 29.1427 8.70732 29.0773C8.77899 29.0119 8.83578 28.9319 8.87386 28.8427C8.91194 28.7534 8.93043 28.657 8.92806 28.56V28.482C8.92997 28.3021 8.86657 28.1275 8.74963 27.9907C8.63269 27.8539 8.47013 27.7641 8.29206 27.738Z" fill="#495DC9"/>
<path d="M29.4 14.748C29.4012 15.3224 29.2321 15.8842 28.914 16.3624C28.5958 16.8406 28.1431 17.2137 27.6129 17.4346C27.0827 17.6555 26.4989 17.7142 25.9354 17.6034C25.3718 17.4925 24.8538 17.217 24.4469 16.8117C24.0399 16.4064 23.7622 15.8895 23.649 15.3264C23.5358 14.7633 23.5921 14.1793 23.8108 13.6482C24.0295 13.1171 24.4008 12.6628 24.8777 12.3427C25.3546 12.0227 25.9157 11.8512 26.49 11.85C26.8716 11.8484 27.2498 11.9222 27.6027 12.0671C27.9557 12.2121 28.2766 12.4253 28.547 12.6946C28.8174 12.9638 29.0319 13.2838 29.1783 13.6362C29.3247 13.9886 29.4 14.3664 29.4 14.748Z" fill="#F4A81E"/>
<path d="M27.552 27.21C27.552 27.4986 27.4378 27.7755 27.2343 27.9801C27.0308 28.1847 26.7546 28.3004 26.466 28.302H26.4C26.2569 28.3028 26.1151 28.2753 25.9826 28.2211C25.8501 28.1669 25.7297 28.087 25.6282 27.9861C25.5268 27.8851 25.4462 27.7652 25.3913 27.633C25.3363 27.5009 25.308 27.3591 25.308 27.216L25.29 2.05202C25.29 1.90737 25.3189 1.76416 25.3749 1.63081C25.431 1.49746 25.5132 1.37666 25.6166 1.2755C25.72 1.17433 25.8425 1.09484 25.9771 1.0417C26.1116 0.988556 26.2554 0.962828 26.4 0.966025C26.5432 0.966022 26.6849 0.99431 26.817 1.04926C26.9492 1.10421 27.0692 1.18474 27.1701 1.28622C27.271 1.38771 27.3509 1.50813 27.4051 1.64059C27.4593 1.77304 27.4868 1.9149 27.486 2.05802L27.552 27.21Z" fill="#E29314"/>
<path d="M8.62416 9.0344L4.68216 9.04059C3.80403 9.04197 3.09328 9.75496 3.09466 10.6331L3.10783 19.0151C3.10921 19.8932 3.82219 20.604 4.70032 20.6026L8.64232 20.5964C9.52045 20.595 10.2312 19.882 10.2298 19.0039L10.2167 10.6219C10.2153 9.74377 9.50229 9.03302 8.62416 9.0344Z" fill="#2F3C80"/>
<path d="M25.29 2.13599C25.29 2.13599 22.8 10.758 10.374 10.8V18.966C10.374 18.966 25.32 21.102 25.332 27.252L25.29 2.13599Z" fill="#F4A81E"/>
<path d="M10.374 11.13V12.186C22.8 12.168 25.296 3.53999 25.296 3.53999V2.48999C25.296 2.48999 22.8 11.112 10.374 11.13Z" fill="white"/>
<path opacity="0.1" d="M0.599976 14.634V15.714C0.609285 15.8796 0.682857 16.0349 0.805016 16.147C0.927176 16.2591 1.08827 16.319 1.25398 16.314H1.28998V17.262C1.29942 17.6859 1.47527 18.0891 1.77953 18.3843C2.08378 18.6796 2.49201 18.8433 2.91598 18.84H3.10798V18.882C3.11925 19.1967 3.21933 19.5016 3.39664 19.7618C3.57395 20.0219 3.82126 20.2265 4.10998 20.352V27.732C4.12655 27.9506 4.18651 28.1637 4.28636 28.3589C4.38621 28.554 4.52395 28.7273 4.69152 28.8686C4.8591 29.01 5.05316 29.1165 5.26237 29.182C5.47157 29.2475 5.69173 29.2706 5.90998 29.25H8.19598C8.29236 29.2612 8.39002 29.2516 8.48236 29.2218C8.5747 29.192 8.65957 29.1428 8.73124 29.0773C8.8029 29.0119 8.8597 28.9319 8.89778 28.8427C8.93586 28.7534 8.95434 28.657 8.95198 28.56V28.482C8.95332 28.2994 8.8874 28.1226 8.7668 27.9854C8.64619 27.8482 8.47931 27.7601 8.29798 27.738H8.33998V20.454H8.74198C9.16977 20.4622 9.58366 20.302 9.89452 20.008C10.2054 19.714 10.3883 19.3096 10.404 18.882C10.404 18.882 25.32 21 25.332 27.168V27.216C25.3209 27.3634 25.3404 27.5115 25.3893 27.651C25.4381 27.7905 25.5152 27.9184 25.6157 28.0268C25.7162 28.1351 25.838 28.2215 25.9735 28.2806C26.109 28.3398 26.2552 28.3703 26.403 28.3703C26.5508 28.3703 26.697 28.3398 26.8325 28.2806C26.9679 28.2215 27.0897 28.1351 27.1903 28.0268C27.2908 27.9184 27.3679 27.7905 27.4167 27.651C27.4655 27.5115 27.485 27.3634 27.474 27.216V17.412C28.0404 17.2085 28.5298 16.8344 28.8747 16.3412C29.2196 15.8479 29.4032 15.2599 29.4 14.658C29.4012 14.6361 29.4012 14.614 29.4 14.592L0.599976 14.634Z" fill="black"/>
</svg>
