<svg width="30" height="30" viewBox="0 0 30 30" fill="none" xmlns="http://www.w3.org/2000/svg">
<path d="M13.8 12.48C13.2384 12.7176 12.7599 13.1162 12.4249 13.6256C12.0898 14.135 11.9133 14.7323 11.9176 15.342C11.9218 15.9518 12.1068 16.5465 12.4489 17.0511C12.7911 17.5558 13.2752 17.9477 13.8401 18.1773C14.4049 18.4069 15.0251 18.464 15.6223 18.3412C16.2196 18.2185 16.767 17.9215 17.1955 17.4877C17.624 17.0539 17.9143 16.5029 18.0297 15.9042C18.1451 15.3055 18.0805 14.686 17.844 14.124C17.525 13.3703 16.9201 12.7739 16.162 12.4657C15.4038 12.1575 14.5544 12.1627 13.8 12.48Z" fill="#2F3C80"/>
<path d="M26.202 16.086C24.558 14.8359 22.8026 13.7393 20.958 12.81C22.65 7.224 23.094 2.01 20.808 1.056C19.5 0.527999 17.754 1.584 15.762 4.122C14.5132 5.76485 13.4167 7.51811 12.486 9.36C11.586 9.084 10.686 8.844 9.84605 8.646C9.81946 8.53384 9.78538 8.4236 9.74405 8.316C9.50871 7.76355 9.06388 7.32698 8.50712 7.10202C7.95036 6.87707 7.32711 6.88209 6.77405 7.116C6.34808 7.29481 5.98768 7.60073 5.74205 7.992C2.95205 7.8 1.20005 8.31 0.73205 9.516C-0.19795 11.802 3.85805 15.144 9.03605 17.832C8.41478 19.8017 7.97495 21.8242 7.72205 23.874C7.37405 27.084 7.88405 29.058 9.19205 29.592C9.46758 29.6921 9.76045 29.7358 10.0532 29.7203C10.346 29.7048 10.6326 29.6306 10.896 29.502C11.994 28.94 12.9548 28.1432 13.71 27.168C14.2007 27.4508 14.7794 27.5399 15.3324 27.4176C15.8853 27.2954 16.3725 26.9707 16.6982 26.5074C17.0239 26.044 17.1644 25.4757 17.0922 24.9139C17.02 24.3522 16.7403 23.8379 16.308 23.472C16.716 22.782 17.118 22.05 17.508 21.288C19.4758 21.9092 21.4962 22.349 23.544 22.602C25.512 22.812 27.018 22.704 28.008 22.29C28.2836 22.1902 28.5365 22.0363 28.7518 21.8374C28.9671 21.6386 29.1406 21.3988 29.262 21.132C29.796 19.8 28.74 18.078 26.202 16.086ZM16.602 4.8C17.802 3.24 18.804 2.448 19.512 2.148C19.7831 1.99889 20.1012 1.9602 20.4 2.04C21.696 2.574 21.642 6.78 19.992 12.324C18.972 11.826 17.898 11.346 16.794 10.896C15.69 10.446 14.592 10.044 13.512 9.696C14.3936 7.97492 15.4278 6.33635 16.602 4.8ZM19.674 13.374C19.326 14.46 18.912 15.588 18.444 16.746C17.976 17.904 17.478 18.996 16.968 20.022C15.882 19.668 14.754 19.26 13.596 18.786C12.438 18.312 11.346 17.82 10.326 17.316C10.686 16.206 11.094 15.078 11.556 13.944C12.018 12.81 12.516 11.712 13.032 10.668C14.136 11.028 15.264 11.436 16.404 11.898C17.544 12.36 18.63 12.84 19.674 13.356V13.374ZM1.71605 9.918C1.85785 9.63477 2.10588 9.4191 2.40605 9.318C3.37175 8.99842 4.39525 8.89198 5.40605 9.006C5.37805 9.36493 5.43777 9.72529 5.58005 10.056C5.76437 10.4952 6.08265 10.865 6.4895 11.1127C6.89635 11.3605 7.37101 11.4734 7.84583 11.4355C8.32064 11.3976 8.77138 11.2108 9.13378 10.9016C9.49617 10.5925 9.75174 10.1769 9.86405 9.714C10.56 9.882 11.28 10.08 12.012 10.314C11.514 11.334 11.034 12.408 10.584 13.512C10.134 14.616 9.73205 15.714 9.38405 16.794C4.23605 14.112 1.20005 11.22 1.71605 9.918ZM15.336 23.004C14.8838 22.9054 14.4122 22.9494 13.986 23.13C13.7088 23.2464 13.4575 23.4167 13.2467 23.6311C13.0359 23.8455 12.8699 24.0997 12.7582 24.3789C12.6465 24.658 12.5915 24.9566 12.5963 25.2572C12.6011 25.5578 12.6656 25.8545 12.786 26.13C12.8304 26.2387 12.8846 26.3432 12.948 26.442C11.538 28.08 10.32 28.902 9.60005 28.608C9.00005 28.362 8.46005 27.018 8.78405 23.988C9.01482 22.0661 9.4164 20.1686 9.98405 18.318C11.022 18.834 12.102 19.314 13.182 19.752C14.262 20.19 15.384 20.604 16.464 20.952C16.104 21.684 15.72 22.368 15.336 23.004ZM28.284 20.73C27.756 22.032 23.544 21.972 18 20.322C18.498 19.302 18.978 18.234 19.428 17.13C19.878 16.026 20.274 14.94 20.628 13.842C22.353 14.721 23.9956 15.7532 25.536 16.926C27.942 18.804 28.53 20.124 28.284 20.73Z" fill="#F3A81D"/>
<path d="M14.898 27.456C16.1506 27.456 17.166 26.4406 17.166 25.188C17.166 23.9354 16.1506 22.92 14.898 22.92C13.6454 22.92 12.63 23.9354 12.63 25.188C12.63 26.4406 13.6454 27.456 14.898 27.456Z" fill="#495DC9"/>
<path d="M12.51 9.384C11.604 9.108 10.71 8.868 9.87 8.67C9.84427 8.55762 9.81017 8.44731 9.768 8.34C9.65162 8.06278 9.48127 7.81146 9.26687 7.60067C9.05247 7.38989 8.7983 7.22383 8.51914 7.11217C8.23998 7.0005 7.9414 6.94546 7.64078 6.95024C7.34015 6.95502 7.04347 7.01952 6.768 7.14C6.34098 7.3171 5.98011 7.62342 5.736 8.016C3 7.8 1.248 8.334 0.756003 9.54C-0.161997 11.802 3.93 15.15 9.03 17.826L9.354 16.8C4.26 14.112 1.2 11.238 1.74 9.942C1.8818 9.65878 2.12983 9.4431 2.43 9.342C3.39571 9.02243 4.41921 8.91598 5.43 9.03C5.37811 9.60138 5.54528 10.1711 5.89766 10.6239C6.25004 11.0767 6.76131 11.3786 7.32794 11.4686C7.89457 11.5586 8.47422 11.4299 8.94954 11.1086C9.42486 10.7873 9.76032 10.2973 9.888 9.738C10.584 9.906 11.304 10.104 12.036 10.338" fill="#E29314"/>
<path d="M7.69195 11.466C8.94453 11.466 9.95995 10.4506 9.95995 9.19799C9.95995 7.94541 8.94453 6.92999 7.69195 6.92999C6.43937 6.92999 5.42395 7.94541 5.42395 9.19799C5.42395 10.4506 6.43937 11.466 7.69195 11.466Z" fill="#495DC9"/>
<path d="M28.014 22.29C28.2895 22.1902 28.5424 22.0363 28.7577 21.8375C28.9731 21.6386 29.1465 21.3988 29.268 21.132C29.796 19.824 28.74 18.078 26.202 16.086C24.6089 14.8771 22.9123 13.8109 21.132 12.9L20.724 13.884C22.4116 14.7525 24.0181 15.7706 25.524 16.926C27.924 18.804 28.524 20.124 28.266 20.73C27.738 22.026 23.562 21.972 18.066 20.34L17.658 21.336C19.5806 21.9318 21.5523 22.3554 23.55 22.602C25.518 22.8 27 22.704 28.014 22.29Z" fill="#E29314"/>
</svg>
