<svg width="30" height="30" viewBox="0 0 30 30" fill="none" xmlns="http://www.w3.org/2000/svg">
<path d="M23.9999 10.524C24.0006 8.94893 23.6176 7.39736 22.884 6.00354C22.1504 4.60971 21.0883 3.41559 19.7895 2.52446C18.4907 1.63333 16.9944 1.07203 15.43 0.889099C13.8655 0.706172 12.2801 0.907128 10.8108 1.47459C9.34142 2.04204 8.03246 2.95892 6.99708 4.1459C5.9617 5.33288 5.23108 6.75424 4.86842 8.28702C4.50576 9.8198 4.52197 11.4179 4.91566 12.943C5.30935 14.4681 6.06866 15.8743 7.12791 17.04C8.96758 19.0424 9.99447 21.6589 10.0079 24.378V24.774C9.9958 25.8569 10.3842 26.9061 11.0985 27.72C11.8128 28.534 12.8026 29.0554 13.8779 29.184C14.4746 29.2426 15.077 29.1757 15.6463 28.9878C16.2157 28.7999 16.7395 28.495 17.1841 28.0928C17.6287 27.6905 17.9843 27.1998 18.2281 26.652C18.472 26.1043 18.5986 25.5116 18.5999 24.912V24.384C18.637 21.6369 19.6835 18.9994 21.5399 16.974C23.1278 15.2013 24.004 12.9039 23.9999 10.524Z" fill="#F4A81E"/>
<path d="M13.2 0.894001L12.876 0.942001C14.6086 1.19182 16.2412 1.90663 17.5999 3.01041C18.9587 4.11418 19.9929 5.56562 20.5924 7.21034C21.1919 8.85506 21.3344 10.6315 21.0047 12.3508C20.675 14.07 19.8854 15.6678 18.72 16.974C16.8611 18.9978 15.8143 21.6363 15.78 24.384V24.912C15.7775 25.7996 15.5006 26.6647 14.9871 27.3887C14.4736 28.1127 13.7488 28.6601 12.912 28.956C13.2232 29.072 13.5477 29.1486 13.878 29.184C14.4747 29.2425 15.077 29.1757 15.6464 28.9878C16.2157 28.7998 16.7395 28.495 17.1842 28.0927C17.6288 27.6905 17.9844 27.1998 18.2282 26.652C18.472 26.1042 18.5987 25.5116 18.6 24.912V24.384C18.6371 21.6368 19.6835 18.9993 21.54 16.974C22.8487 15.5084 23.6809 13.6796 23.9263 11.7302C24.1717 9.78073 23.8186 7.80275 22.914 6.05855C22.0094 4.31436 20.5959 2.88639 18.861 1.96402C17.1261 1.04166 15.1518 0.668487 13.2 0.894001Z" fill="#E29314"/>
<path d="M9.97192 23.526C9.97192 23.808 10.0079 24.096 10.0079 24.378V24.774C9.99582 25.8569 10.3842 26.906 11.0985 27.72C11.8128 28.534 12.8026 29.0554 13.8779 29.184C14.4746 29.2425 15.077 29.1757 15.6463 28.9878C16.2157 28.7998 16.7395 28.495 17.1841 28.0927C17.6287 27.6905 17.9843 27.1997 18.2282 26.652C18.472 26.1042 18.5986 25.5116 18.5999 24.912V24.384C18.5999 24.096 18.5999 23.784 18.6419 23.526H9.97192Z" fill="#495DC9"/>
<path d="M10.0079 24.774C10.0117 24.8706 10.0217 24.9668 10.0379 25.062H18.5999C18.5999 25.014 18.5999 24.96 18.5999 24.912V24.384C18.5999 24.096 18.5999 23.784 18.6419 23.526H9.97192C9.97192 23.808 10.0079 24.096 10.0079 24.378V24.774Z" fill="#2F3C80"/>
<path d="M14.3041 7.52999C14.3041 8.08917 14.1382 8.63579 13.8274 9.10065C13.5166 9.56551 13.0749 9.92772 12.5582 10.1414C12.0414 10.3552 11.4729 10.4108 10.9246 10.3012C10.3762 10.1917 9.87268 9.92196 9.4777 9.52614C9.08271 9.13031 8.81404 8.62621 8.70567 8.07762C8.59731 7.52904 8.65413 6.96064 8.86894 6.44436C9.08376 5.92808 9.44691 5.48713 9.91243 5.17733C10.378 4.86753 10.9249 4.7028 11.4841 4.70399C11.8549 4.70399 12.2221 4.77713 12.5647 4.91922C12.9072 5.06131 13.2183 5.26957 13.4803 5.53206C13.7422 5.79456 13.9498 6.10614 14.0912 6.44898C14.2325 6.79181 14.3049 7.15915 14.3041 7.52999Z" fill="white"/>
<path d="M12.894 15C12.894 15.2788 12.8113 15.5514 12.6563 15.7833C12.5014 16.0152 12.2812 16.1959 12.0236 16.3026C11.7659 16.4094 11.4824 16.4373 11.2089 16.3829C10.9354 16.3285 10.6841 16.1942 10.487 15.997C10.2898 15.7998 10.1555 15.5486 10.1011 15.275C10.0467 15.0015 10.0746 14.718 10.1813 14.4604C10.288 14.2027 10.4687 13.9825 10.7006 13.8276C10.9325 13.6727 11.2051 13.59 11.484 13.59C11.8579 13.59 12.2166 13.7385 12.481 14.0029C12.7454 14.2674 12.894 14.626 12.894 15Z" fill="white"/>
</svg>
