<svg width="30" height="30" viewBox="0 0 30 30" fill="none" xmlns="http://www.w3.org/2000/svg">
<path d="M23.6101 13.152H7.87208C6.9111 13.152 6.13208 13.9311 6.13208 14.892V23.208C6.13208 24.169 6.9111 24.948 7.87208 24.948H23.6101C24.5711 24.948 25.3501 24.169 25.3501 23.208V14.892C25.3501 13.9311 24.5711 13.152 23.6101 13.152Z" fill="#F3A81D"/>
<path d="M24.4139 24.438V12H20.7479C20.5202 12.0456 20.2857 12.0456 20.0579 12C19.8047 11.8284 19.573 11.627 19.3679 11.4C19.5899 11.16 19.8059 10.728 20.0399 10.722C21.5699 10.662 23.0999 10.656 24.6239 10.722C24.7821 10.7247 24.9381 10.7599 25.0821 10.8256C25.2262 10.8912 25.3551 10.9858 25.4609 11.1034C25.5668 11.2211 25.6472 11.3593 25.6973 11.5094C25.7474 11.6596 25.7659 11.8184 25.7519 11.976C25.7519 16.176 25.7519 20.376 25.7519 24.576C25.7519 25.398 25.1519 25.86 24.2279 25.86H15.3899V28.362H18.3899C18.6239 28.362 18.8939 28.284 19.0799 28.362C19.3516 28.5332 19.6032 28.7345 19.8299 28.962C19.5899 29.184 19.3499 29.562 19.1039 29.562C16.1799 29.602 13.2539 29.602 10.3259 29.562C10.0859 29.562 9.85191 29.148 9.61791 28.926C9.86391 28.716 10.1039 28.326 10.3679 28.326C11.5679 28.26 12.7679 28.326 14.0399 28.326V25.8H5.23791C4.14591 25.8 3.65991 25.32 3.65991 24.246C3.65991 20.246 3.65991 16.232 3.65991 12.204C3.65991 11.118 4.12791 10.644 5.22591 10.632C6.51591 10.632 7.81191 10.632 9.10791 10.632C9.58191 10.632 10.0439 10.704 10.0379 11.304C10.0319 11.904 9.59991 12 9.10191 12H4.98591V24.438H24.4139Z" fill="#F4A81E"/>
<path d="M14.0759 12.78C14.0759 10.218 14.0759 7.65003 14.0759 5.08803C14.1058 4.90486 14.078 4.71691 13.9963 4.55026C13.9146 4.38362 13.783 4.24653 13.6199 4.15803C13.2482 3.93556 12.9665 3.58959 12.8239 3.18053C12.6813 2.77148 12.687 2.32534 12.8399 1.92003C12.9782 1.52577 13.238 1.18555 13.5819 0.948343C13.9259 0.711139 14.3362 0.589183 14.7539 0.600031C15.1706 0.603213 15.5752 0.741066 15.9072 0.993017C16.2391 1.24497 16.4807 1.59751 16.5959 1.99803C16.7329 2.39323 16.7309 2.82337 16.5901 3.21726C16.4494 3.61114 16.1783 3.94516 15.8219 4.16403C15.6572 4.25391 15.5247 4.39303 15.4429 4.56194C15.3611 4.73084 15.3342 4.92107 15.3659 5.10603C15.3659 10.126 15.3659 15.148 15.3659 20.172C15.3659 20.406 15.4379 20.682 15.3659 20.856C15.2939 21.03 14.9459 21.456 14.7659 21.456C14.5859 21.456 14.2139 21.102 14.1659 20.856C14.1047 20.4207 14.0947 19.9797 14.1359 19.542L14.0759 12.78ZM15.6419 2.58003C15.1979 2.27403 14.9279 1.98003 14.6699 1.98003C14.4119 1.98003 14.0699 2.43003 14.1059 2.58003C14.1607 2.72467 14.2483 2.85465 14.3618 2.95978C14.4752 3.06492 14.6115 3.14235 14.7599 3.18603C14.9519 3.22803 15.2219 2.87403 15.6419 2.56203V2.58003Z" fill="#495DC9"/>
<path d="M16.9201 12.534C16.9201 11.01 16.9201 9.48 16.9201 7.956C16.9201 6.3 17.7601 5.466 19.4041 5.472C20.0401 5.472 20.5681 5.472 21.0241 4.812C21.6241 3.912 23.0581 3.96 23.8381 4.746C24.0228 4.93615 24.1674 5.16147 24.2634 5.40858C24.3594 5.65569 24.4048 5.91956 24.397 6.18455C24.3891 6.44954 24.328 6.71024 24.2175 6.9512C24.107 7.19216 23.9492 7.40847 23.7535 7.5873C23.5577 7.76613 23.3281 7.90384 23.0782 7.99225C22.8283 8.08067 22.5631 8.118 22.2985 8.10202C22.0339 8.08605 21.7752 8.01709 21.5377 7.89925C21.3002 7.7814 21.0888 7.61707 20.9161 7.416C20.4961 6.918 19.2421 6.582 18.7501 6.954C18.6094 7.08842 18.4967 7.24933 18.4184 7.42747C18.3402 7.60561 18.2979 7.79746 18.2941 7.992C18.2941 11.046 18.2941 14.1 18.2941 17.154C18.2941 17.334 18.3601 17.556 18.2941 17.688C18.1169 17.9629 17.9161 18.2219 17.6941 18.462C17.4421 18.222 17.0281 18.006 16.9801 17.73C16.9139 17.0861 16.9019 16.4379 16.9441 15.792L16.9201 12.534ZM22.5901 5.4H22.3021C22.1341 5.664 21.8341 5.94 21.8461 6.198C21.8832 6.34254 21.9585 6.47447 22.064 6.58C22.1696 6.68554 22.3015 6.76082 22.4461 6.798C22.59 6.75968 22.7214 6.68402 22.8267 6.57866C22.9321 6.4733 23.0077 6.34198 23.0461 6.198C23.0641 5.922 22.7581 5.646 22.5901 5.4Z" fill="#2F3C80"/>
<path d="M12.474 12.6V17.34C12.474 17.844 12.474 18.402 11.766 18.384C11.058 18.366 11.118 17.862 11.118 17.37C11.118 14.262 11.118 11.154 11.118 8.04598C11.118 7.57198 11.148 7.09198 10.584 6.84598C10.2416 6.73989 9.87804 6.72165 9.52678 6.79295C9.17552 6.86425 8.84785 7.0228 8.57395 7.25398C8.33444 7.59522 7.99246 7.85129 7.59761 7.98507C7.20275 8.11885 6.77555 8.12337 6.37795 7.99798C5.96609 7.8724 5.60526 7.61825 5.34829 7.27275C5.09133 6.92725 4.95173 6.50856 4.94995 6.07798C4.9638 5.67516 5.09495 5.28515 5.3273 4.95581C5.55965 4.62646 5.8831 4.37212 6.25795 4.22398C6.65864 4.06171 7.10324 4.04359 7.5158 4.17272C7.92836 4.30185 8.28329 4.57022 8.51995 4.93198C8.62547 5.11705 8.78659 5.26417 8.98045 5.35249C9.17432 5.4408 9.39107 5.46582 9.59995 5.42398C9.97085 5.35987 10.351 5.37315 10.7165 5.46298C11.082 5.55281 11.425 5.71725 11.724 5.94598C11.9778 6.1868 12.1759 6.4802 12.3044 6.80565C12.433 7.13109 12.4888 7.4807 12.468 7.82998C12.468 9.43198 12.474 11.016 12.474 12.6ZM7.86595 6.19798C7.45795 5.86798 7.19395 5.49598 7.00795 5.53198C6.82195 5.56798 6.53395 5.93398 6.29995 6.13198C6.51595 6.34798 6.70795 6.73198 6.94195 6.73198C7.17595 6.73198 7.43395 6.47998 7.86595 6.19798Z" fill="#2F3C80"/>
<path d="M4.98591 24.438V12H9.10191C9.58191 12 10.0319 11.922 10.0379 11.334C10.0439 10.746 9.58191 10.662 9.10791 10.662C7.81191 10.662 6.51591 10.662 5.22591 10.662C4.12791 10.662 3.65991 11.148 3.65991 12.234C3.65991 16.234 3.65991 20.248 3.65991 24.276C3.65991 25.35 4.14591 25.83 5.23791 25.83H14.0159V28.332C12.7619 28.332 11.5499 28.296 10.3439 28.332C10.0799 28.332 9.83991 28.722 9.59391 28.932C9.82791 29.154 10.0619 29.562 10.3019 29.568C11.7839 29.568 12.5399 29.604 14.0219 29.604V24.438H4.98591Z" fill="#E29314"/>
</svg>
